<svg xmlns="http://www.w3.org/2000/svg" width="42" height="50.023" viewBox="0 0 42 50.023">
  <g id="グループ_16" data-name="グループ 16" transform="translate(-127 -69.977)">
    <g id="パス_4" data-name="パス 4" transform="translate(127 70)" fill="#fff">
      <path d="M 39 49.5 L 3 49.5 C 1.621500015258789 49.5 0.5 48.37850189208984 0.5 47 L 0.5 3 C 0.5 1.621500015258789 1.621500015258789 0.5 3 0.5 L 26.100830078125 0.5 L 26.100830078125 13.37720012664795 L 26.100830078125 13.87720012664795 L 26.600830078125 13.87720012664795 L 41.5 13.87720012664795 L 41.5 47 C 41.5 48.37850189208984 40.37850189208984 49.5 39 49.5 Z" stroke="none"/>
      <path d="M 3 1 C 1.897201538085938 1 1 1.897201538085938 1 3 L 1 47 C 1 48.10279846191406 1.897201538085938 49 3 49 L 39 49 C 40.10279846191406 49 41 48.10279846191406 41 47 L 41 14.37720108032227 L 26.600830078125 14.37720108032227 L 25.600830078125 14.37720108032227 L 25.600830078125 13.37720108032227 L 25.600830078125 1 L 3 1 M 3 0 L 26.600830078125 0 L 26.600830078125 13.37720108032227 L 42 13.37720108032227 L 42 47 C 42 48.6568489074707 40.6568489074707 50 39 50 L 3 50 C 1.343151092529297 50 0 48.6568489074707 0 47 L 0 3 C 0 1.343151092529297 1.343151092529297 0 3 0 Z" stroke="none" fill="#707070"/>
    </g>
    <g id="パス_5" data-name="パス 5" transform="translate(155 70)" fill="#fff">
      <path d="M 12.63471412658691 11.49999523162842 L 0.4999971389770508 11.49999523162842 L 0.4999971389770508 1.066375970840454 L 12.63471412658691 11.49999523162842 Z" stroke="none"/>
      <path d="M 0.9999971389770508 2.155686378479004 L 0.9999971389770508 10.99999523162842 L 11.28628158569336 10.99999523162842 L 0.9999971389770508 2.155686378479004 M -2.86102294921875e-06 -0.02294445037841797 L 13.98315715789795 11.99999523162842 L -2.86102294921875e-06 11.99999523162842 L -2.86102294921875e-06 -0.02294445037841797 Z" stroke="none" fill="#707070"/>
    </g>
    <g id="グループ_14" data-name="グループ 14" transform="translate(135.5 97.5)">
      <line id="線_10" data-name="線 10" x1="7" y2="7" fill="none" stroke="#707070" stroke-linecap="round" stroke-width="2"/>
      <line id="線_11" data-name="線 11" x1="7" y1="7" transform="translate(0 7)" fill="none" stroke="#707070" stroke-linecap="round" stroke-width="2"/>
    </g>
    <g id="グループ_15" data-name="グループ 15" transform="translate(154.5 97.5)">
      <line id="線_10-2" data-name="線 10" x2="7" y2="7" fill="none" stroke="#707070" stroke-linecap="round" stroke-width="2"/>
      <line id="線_11-2" data-name="線 11" y1="7" x2="7" transform="translate(0 7)" fill="none" stroke="#707070" stroke-linecap="round" stroke-width="2"/>
    </g>
    <line id="線_12" data-name="線 12" x1="8" y2="22" transform="translate(144.5 93.5)" fill="none" stroke="#707070" stroke-width="2"/>
  </g>
</svg>
