<svg xmlns="http://www.w3.org/2000/svg" width="75" height="50" viewBox="0 0 75 50">
  <g id="グループ_13" data-name="グループ 13" transform="translate(-110 -60)">
    <g id="長方形_8" data-name="長方形 8" transform="translate(110 60)" fill="#fff" stroke="#707070" stroke-width="1">
      <rect width="43" height="24" stroke="none"/>
      <rect x="0.5" y="0.5" width="42" height="23" fill="none"/>
    </g>
    <g id="長方形_9" data-name="長方形 9" transform="translate(153 89)" fill="#fff" stroke="#707070" stroke-width="1">
      <rect width="32" height="21" stroke="none"/>
      <rect x="0.5" y="0.5" width="31" height="20" fill="none"/>
    </g>
    <g id="グループ_12" data-name="グループ 12" transform="translate(-43.876 54.864) rotate(-34)">
      <g id="パス_2" data-name="パス 2" transform="translate(125 125)" fill="#fff">
        <path d="M 38.00000381469727 13.5 L 0.1412201076745987 13.5 L -10.03470611572266 7.253188133239746 L 0.1506994366645813 0.5 L 38.00000381469727 0.5 C 39.37850570678711 0.5 40.50000381469727 1.621500015258789 40.50000381469727 3 L 40.50000381469727 11 C 40.50000381469727 12.37849998474121 39.37850570678711 13.5 38.00000381469727 13.5 Z" stroke="none"/>
        <path d="M 0.3013992309570312 1 L -9.105415344238281 7.23696231842041 L 0.2824516296386719 13 L 37.99999618530273 13 C 39.1027946472168 13 39.99999618530273 12.1028003692627 39.99999618530273 11 L 39.99999618530273 3 C 39.99999618530273 1.897199630737305 39.1027946472168 1 37.99999618530273 1 L 0.3013992309570312 1 M -3.814697265625e-06 0 L 37.99999618530273 0 C 39.65685653686523 0 40.99999618530273 1.34315013885498 40.99999618530273 3 L 40.99999618530273 11 C 40.99999618530273 12.65684986114502 39.65685653686523 14 37.99999618530273 14 L -3.814697265625e-06 14 L -10.96399307250977 7.269410133361816 L -3.814697265625e-06 0 Z" stroke="none" fill="#707070"/>
      </g>
      <path id="パス_3" data-name="パス 3" d="M0,0,3.192,4.518v3.79L0,13" transform="translate(125.5 125.5)" fill="none" stroke="#707070" stroke-width="1"/>
      <line id="線_6" data-name="線 6" y2="13" transform="translate(159.5 125.5)" fill="none" stroke="#707070" stroke-width="1"/>
      <line id="線_7" data-name="線 7" x2="31" transform="translate(128.5 129.5)" fill="none" stroke="#707070" stroke-width="1"/>
      <line id="線_8" data-name="線 8" x2="31" transform="translate(128.5 134.5)" fill="none" stroke="#707070" stroke-width="1"/>
      <line id="線_9" data-name="線 9" y2="5" transform="translate(119.5 129.5)" fill="none" stroke="#707070" stroke-linecap="round" stroke-width="1"/>
    </g>
  </g>
</svg>
