<svg xmlns="http://www.w3.org/2000/svg" width="75" height="50" viewBox="0 0 75 50">
  <g id="グループ_8" data-name="グループ 8" transform="translate(-14 -15)">
    <g id="グループ_6" data-name="グループ 6" transform="translate(14 15)">
      <g id="パス_1" data-name="パス 1" fill="#fff">
        <path d="M 8.842096328735352 37.87326431274414 L 12.50957012176514 29.19462776184082 L 12.80311965942383 28.49999809265137 L 12.04901027679443 28.49999809265137 L 3 28.49999809265137 C 1.621500015258789 28.49999809265137 0.5 27.37849807739258 0.5 25.99999809265137 L 0.5 2.999998331069946 C 0.5 1.621498465538025 1.621500015258789 0.4999984204769135 3 0.4999984204769135 L 41 0.4999984204769135 C 42.37850189208984 0.4999984204769135 43.5 1.621498465538025 43.5 2.999998331069946 L 43.5 25.99999809265137 C 43.5 27.37849807739258 42.37850189208984 28.49999809265137 41 28.49999809265137 L 25.64722061157227 28.49999809265137 L 25.51631927490234 28.49999809265137 L 25.4022102355957 28.56414794921875 L 8.842096328735352 37.87326431274414 Z" stroke="none"/>
        <path d="M 3 1 C 1.897201538085938 1 1 1.897197723388672 1 3 L 1 25.99999809265137 C 1 27.10279846191406 1.897201538085938 27.99999809265137 3 27.99999809265137 L 12.04900932312012 27.99999809265137 L 13.55722045898438 27.99999809265137 L 12.97014045715332 29.38925933837891 L 9.871952056884766 36.72075271606445 L 25.15719985961914 28.12828826904297 L 25.38541030883789 27.99999809265137 L 25.64722061157227 27.99999809265137 L 41 27.99999809265137 C 42.10279846191406 27.99999809265137 43 27.10279846191406 43 25.99999809265137 L 43 3 C 43 1.897197723388672 42.10279846191406 1 41 1 L 3 1 M 3 0 L 41 0 C 42.6568489074707 0 44 1.343147277832031 44 3 L 44 25.99999809265137 C 44 27.65685844421387 42.6568489074707 28.99999809265137 41 28.99999809265137 L 25.64722061157227 28.99999809265137 L 7.812259674072266 39.0257568359375 L 12.04900932312012 28.99999809265137 L 3 28.99999809265137 C 1.343151092529297 28.99999809265137 0 27.65685844421387 0 25.99999809265137 L 0 3 C 0 1.343147277832031 1.343151092529297 0 3 0 Z" stroke="none" fill="#707070"/>
      </g>
      <text id="_" data-name="?" transform="translate(22 23)" fill="#6a6a6a" font-size="24" font-family="SinhalaMN, Sinhala MN"><tspan x="-5.402" y="0">?</tspan></text>
    </g>
    <g id="グループ_7" data-name="グループ 7" transform="translate(45 26.067)">
      <g id="パス_1-2" data-name="パス 1" fill="#fff">
        <path d="M 33.89220428466797 37.78604888916016 L 20.5 28.58784484863281 L 20.37208938598633 28.49999618530273 L 20.21692085266113 28.49999618530273 L 3 28.49999618530273 C 1.621500015258789 28.49999618530273 0.5 27.37849617004395 0.5 25.99999618530273 L 0.5 3.00000524520874 C 0.5 1.621505379676819 1.621500015258789 0.500005304813385 3 0.500005304813385 L 41 0.500005304813385 C 42.37850189208984 0.500005304813385 43.5 1.621505379676819 43.5 3.00000524520874 L 43.5 25.99999618530273 C 43.5 27.37849617004395 42.37850189208984 28.49999618530273 41 28.49999618530273 L 32.31287002563477 28.49999618530273 L 31.67975044250488 28.49999618530273 L 31.82648086547852 29.11587524414062 L 33.89220428466797 37.78604888916016 Z" stroke="none"/>
        <path d="M 3 0.9999961853027344 C 1.897201538085938 0.9999961853027344 1 1.897193908691406 1 2.999996185302734 L 1 25.99999618530273 C 1 27.1027946472168 1.897201538085938 27.99999618530273 3 27.99999618530273 L 20.21692085266113 27.99999618530273 L 20.52725982666016 27.99999618530273 L 20.78307914733887 28.17569541931152 L 33.10483932495117 36.63867950439453 L 31.3400993347168 29.23176574707031 L 31.0466194152832 27.99999618530273 L 32.31287002563477 27.99999618530273 L 41 27.99999618530273 C 42.10279846191406 27.99999618530273 43 27.1027946472168 43 25.99999618530273 L 43 2.999996185302734 C 43 1.897193908691406 42.10279846191406 0.9999961853027344 41 0.9999961853027344 L 3 0.9999961853027344 M 3 -3.814697265625e-06 L 41 -3.814697265625e-06 C 42.6568489074707 -3.814697265625e-06 44 1.343143463134766 44 2.999996185302734 L 44 25.99999618530273 C 44 27.65685653686523 42.6568489074707 28.99999618530273 41 28.99999618530273 L 32.31287002563477 28.99999618530273 L 34.67955780029297 38.93340682983398 L 20.21692085266113 28.99999618530273 L 3 28.99999618530273 C 1.343151092529297 28.99999618530273 0 27.65685653686523 0 25.99999618530273 L 0 2.999996185302734 C 0 1.343143463134766 1.343151092529297 -3.814697265625e-06 3 -3.814697265625e-06 Z" stroke="none" fill="#707070"/>
      </g>
      <text id="_2" data-name="!" transform="translate(22 23)" fill="#6a6a6a" font-size="24" font-family="SinhalaMN, Sinhala MN"><tspan x="-3.322" y="0">!</tspan></text>
    </g>
  </g>
</svg>
